<svg width="355" height="55" viewBox="0 0 355 55" fill="none" xmlns="http://www.w3.org/2000/svg">
<rect x="8" y="8" width="47" height="47" rx="9" fill="#73C0FF" fill-opacity="0.8"/>
<rect width="47" height="47" rx="9" fill="#73C0FF" fill-opacity="0.8"/>
<path d="M70.4 43V21.4C70.4 19.8267 70.7333 18.44 71.4 17.24C72.0933 16.0133 73.0533 15.0533 74.28 14.36C75.5067 13.6667 76.9333 13.32 78.56 13.32C79.8133 13.32 80.9067 13.48 81.84 13.8C82.8 14.12 83.6133 14.52 84.28 15L82.44 19.72C82.0667 19.5067 81.6267 19.32 81.12 19.16C80.64 18.9733 80.16 18.88 79.68 18.88C78.9867 18.88 78.4133 19 77.96 19.24C77.5333 19.4533 77.2133 19.7733 77 20.2C76.7867 20.6267 76.68 21.1333 76.68 21.72V43H73.56C72.8933 43 72.2933 43 71.76 43C71.2267 43 70.7733 43 70.4 43ZM66.68 27.8V22.52H82.8V27.8H66.68ZM90.16 43V13.4H96.56V43H90.16ZM114.466 43.36C112.359 43.36 110.519 42.8933 108.946 41.96C107.372 41.0267 106.132 39.7333 105.226 38.08C104.346 36.4 103.906 34.4933 103.906 32.36C103.906 30.2 104.359 28.2933 105.266 26.64C106.172 24.9867 107.426 23.6933 109.026 22.76C110.652 21.8 112.519 21.32 114.626 21.32C115.826 21.32 116.932 21.48 117.946 21.8C118.959 22.0933 119.839 22.5067 120.586 23.04C121.359 23.5733 121.986 24.16 122.466 24.8C122.972 25.44 123.306 26.1067 123.466 26.8H122.066V21.76H128.386V43H121.946V37.56L123.306 37.76C123.146 38.4533 122.812 39.1333 122.306 39.8C121.799 40.4667 121.146 41.0667 120.346 41.6C119.546 42.1333 118.639 42.56 117.626 42.88C116.639 43.2 115.586 43.36 114.466 43.36ZM116.186 37.96C117.386 37.96 118.426 37.7333 119.306 37.28C120.212 36.8267 120.906 36.1867 121.386 35.36C121.892 34.5067 122.146 33.5067 122.146 32.36C122.146 31.24 121.892 30.2667 121.386 29.44C120.906 28.5867 120.212 27.92 119.306 27.44C118.426 26.96 117.386 26.72 116.186 26.72C114.986 26.72 113.946 26.96 113.066 27.44C112.186 27.92 111.492 28.5867 110.986 29.44C110.506 30.2667 110.266 31.24 110.266 32.36C110.266 33.5067 110.506 34.5067 110.986 35.36C111.492 36.1867 112.186 36.8267 113.066 37.28C113.946 37.7333 114.986 37.96 116.186 37.96ZM146.339 43.4C143.992 43.4 141.885 43.0667 140.019 42.4C138.179 41.7333 136.699 40.7867 135.579 39.56L139.459 36.12C140.365 36.9733 141.445 37.6267 142.699 38.08C143.952 38.5333 145.272 38.76 146.659 38.76C147.085 38.76 147.499 38.72 147.899 38.64C148.325 38.56 148.685 38.4533 148.979 38.32C149.299 38.16 149.552 37.9733 149.739 37.76C149.925 37.5467 150.019 37.28 150.019 36.96C150.019 36.4533 149.699 36.0533 149.059 35.76C148.605 35.6 148.032 35.44 147.339 35.28C146.645 35.12 145.859 34.9467 144.979 34.76C143.512 34.4933 142.219 34.1733 141.099 33.8C140.005 33.4 139.085 32.9067 138.339 32.32C137.699 31.76 137.205 31.12 136.859 30.4C136.512 29.68 136.339 28.84 136.339 27.88C136.339 26.8933 136.592 26 137.099 25.2C137.605 24.3733 138.312 23.68 139.219 23.12C140.125 22.5333 141.165 22.0933 142.339 21.8C143.512 21.48 144.739 21.32 146.019 21.32C147.299 21.32 148.552 21.4533 149.779 21.72C151.005 21.96 152.165 22.32 153.259 22.8C154.352 23.2533 155.312 23.84 156.139 24.56L152.859 28.4C152.272 27.9467 151.592 27.5333 150.819 27.16C150.045 26.7867 149.219 26.4933 148.339 26.28C147.485 26.04 146.645 25.92 145.819 25.92C145.365 25.92 144.925 25.9467 144.499 26C144.099 26.0533 143.752 26.16 143.459 26.32C143.165 26.4533 142.925 26.6267 142.739 26.84C142.579 27.0267 142.499 27.2667 142.499 27.56C142.499 27.8 142.565 28.0267 142.699 28.24C142.832 28.4533 143.032 28.6267 143.299 28.76C143.672 29 144.219 29.2133 144.939 29.4C145.685 29.5867 146.619 29.7867 147.739 30C149.365 30.3467 150.752 30.7467 151.899 31.2C153.045 31.6267 153.965 32.1467 154.659 32.76C155.219 33.1867 155.632 33.72 155.899 34.36C156.165 34.9733 156.299 35.6533 156.299 36.4C156.299 37.76 155.859 38.9733 154.979 40.04C154.125 41.08 152.952 41.9067 151.459 42.52C149.992 43.1067 148.285 43.4 146.339 43.4ZM163.61 43V13.4H169.89V26.72L168.37 27.24C168.637 26.1733 169.197 25.2 170.05 24.32C170.93 23.4133 171.997 22.6933 173.25 22.16C174.504 21.6 175.837 21.32 177.25 21.32C179.064 21.32 180.584 21.6933 181.81 22.44C183.064 23.16 183.997 24.1867 184.61 25.52C185.25 26.8267 185.57 28.36 185.57 30.12V43H179.13V31.12C179.13 30.16 178.957 29.36 178.61 28.72C178.29 28.0533 177.797 27.5467 177.13 27.2C176.49 26.8533 175.744 26.6933 174.89 26.72C174.197 26.72 173.544 26.84 172.93 27.08C172.344 27.2933 171.824 27.6133 171.37 28.04C170.944 28.44 170.61 28.9067 170.37 29.44C170.13 29.9733 170.01 30.5467 170.01 31.16V43H166.85C165.97 43 165.264 43 164.73 43C164.197 43 163.824 43 163.61 43ZM205.328 43.4C202.981 43.4 200.901 42.92 199.088 41.96C197.275 41 195.848 39.6933 194.808 38.04C193.768 36.36 193.248 34.4667 193.248 32.36C193.248 30.2533 193.768 28.3733 194.808 26.72C195.848 25.04 197.261 23.72 199.048 22.76C200.835 21.8 202.861 21.32 205.128 21.32C207.288 21.32 209.261 21.6533 211.048 22.32C212.835 22.96 214.288 23.8667 215.408 25.04L211.928 29.44C211.448 28.9867 210.875 28.56 210.208 28.16C209.541 27.76 208.821 27.4533 208.048 27.24C207.301 27 206.528 26.88 205.728 26.88C204.501 26.88 203.421 27.12 202.488 27.6C201.581 28.0533 200.875 28.6933 200.368 29.52C199.888 30.3467 199.648 31.2933 199.648 32.36C199.648 33.3733 199.901 34.2933 200.408 35.12C200.915 35.9467 201.621 36.6 202.528 37.08C203.435 37.56 204.488 37.8 205.688 37.8C206.648 37.8 207.501 37.7067 208.248 37.52C208.995 37.3333 209.675 37.08 210.288 36.76C210.928 36.4133 211.475 36.0267 211.928 35.6L215.408 39.96C214.208 40.9733 212.741 41.8 211.008 42.44C209.275 43.08 207.381 43.4 205.328 43.4ZM230.95 43.36C228.843 43.36 227.003 42.8933 225.43 41.96C223.857 41.0267 222.617 39.7333 221.71 38.08C220.83 36.4 220.39 34.4933 220.39 32.36C220.39 30.2 220.843 28.2933 221.75 26.64C222.657 24.9867 223.91 23.6933 225.51 22.76C227.137 21.8 229.003 21.32 231.11 21.32C232.31 21.32 233.417 21.48 234.43 21.8C235.443 22.0933 236.323 22.5067 237.07 23.04C237.843 23.5733 238.47 24.16 238.95 24.8C239.457 25.44 239.79 26.1067 239.95 26.8H238.55V21.76H244.87V43H238.43V37.56L239.79 37.76C239.63 38.4533 239.297 39.1333 238.79 39.8C238.283 40.4667 237.63 41.0667 236.83 41.6C236.03 42.1333 235.123 42.56 234.11 42.88C233.123 43.2 232.07 43.36 230.95 43.36ZM232.67 37.96C233.87 37.96 234.91 37.7333 235.79 37.28C236.697 36.8267 237.39 36.1867 237.87 35.36C238.377 34.5067 238.63 33.5067 238.63 32.36C238.63 31.24 238.377 30.2667 237.87 29.44C237.39 28.5867 236.697 27.92 235.79 27.44C234.91 26.96 233.87 26.72 232.67 26.72C231.47 26.72 230.43 26.96 229.55 27.44C228.67 27.92 227.977 28.5867 227.47 29.44C226.99 30.2667 226.75 31.24 226.75 32.36C226.75 33.5067 226.99 34.5067 227.47 35.36C227.977 36.1867 228.67 36.8267 229.55 37.28C230.43 37.7333 231.47 37.96 232.67 37.96ZM254.743 43V21.76H260.823L261.103 29.08L259.583 28.32C259.93 27.0133 260.53 25.84 261.383 24.8C262.263 23.7333 263.263 22.8933 264.383 22.28C265.53 21.64 266.743 21.32 268.023 21.32C268.716 21.32 269.37 21.3867 269.983 21.52C270.623 21.6533 271.17 21.8267 271.623 22.04L269.863 29.04C269.463 28.7467 268.916 28.52 268.223 28.36C267.556 28.2 266.876 28.12 266.183 28.12C265.41 28.12 264.703 28.2533 264.063 28.52C263.45 28.76 262.93 29.1067 262.503 29.56C262.076 29.9867 261.743 30.48 261.503 31.04C261.29 31.6 261.183 32.2 261.183 32.84V43H254.743ZM285.987 43.44C283.907 43.44 282.081 42.9733 280.507 42.04C278.934 41.08 277.707 39.7733 276.827 38.12C275.947 36.44 275.507 34.5333 275.507 32.4C275.507 30.2667 275.961 28.3733 276.867 26.72C277.774 25.04 279.027 23.72 280.627 22.76C282.254 21.8 284.121 21.32 286.227 21.32C287.401 21.32 288.494 21.48 289.507 21.8C290.521 22.0933 291.427 22.4933 292.227 23C293.054 23.5067 293.707 24.0933 294.187 24.76C294.694 25.4 294.987 26.0533 295.067 26.72L293.547 27.08V13.4H299.987V43H294.027L293.667 37.84L294.947 38.16C294.867 38.8267 294.574 39.48 294.067 40.12C293.561 40.7333 292.894 41.2933 292.067 41.8C291.267 42.28 290.347 42.68 289.307 43C288.267 43.2933 287.161 43.44 285.987 43.44ZM287.787 38.04C288.987 38.04 290.027 37.8 290.907 37.32C291.814 36.84 292.507 36.1867 292.987 35.36C293.467 34.5067 293.707 33.52 293.707 32.4C293.707 31.2533 293.467 30.2667 292.987 29.44C292.507 28.5867 291.814 27.9333 290.907 27.48C290.027 27 288.987 26.76 287.787 26.76C286.587 26.76 285.547 27 284.667 27.48C283.787 27.9333 283.094 28.5867 282.587 29.44C282.107 30.2667 281.867 31.2533 281.867 32.4C281.867 33.52 282.107 34.5067 282.587 35.36C283.094 36.1867 283.787 36.84 284.667 37.32C285.547 37.8 286.587 38.04 287.787 38.04ZM317.433 43.4C315.086 43.4 312.979 43.0667 311.113 42.4C309.273 41.7333 307.793 40.7867 306.673 39.56L310.553 36.12C311.459 36.9733 312.539 37.6267 313.793 38.08C315.046 38.5333 316.366 38.76 317.753 38.76C318.179 38.76 318.593 38.72 318.993 38.64C319.419 38.56 319.779 38.4533 320.073 38.32C320.393 38.16 320.646 37.9733 320.833 37.76C321.019 37.5467 321.113 37.28 321.113 36.96C321.113 36.4533 320.793 36.0533 320.153 35.76C319.699 35.6 319.126 35.44 318.433 35.28C317.739 35.12 316.953 34.9467 316.072 34.76C314.606 34.4933 313.313 34.1733 312.193 33.8C311.099 33.4 310.179 32.9067 309.433 32.32C308.793 31.76 308.299 31.12 307.953 30.4C307.606 29.68 307.433 28.84 307.433 27.88C307.433 26.8933 307.686 26 308.193 25.2C308.699 24.3733 309.406 23.68 310.313 23.12C311.219 22.5333 312.259 22.0933 313.433 21.8C314.606 21.48 315.833 21.32 317.113 21.32C318.393 21.32 319.646 21.4533 320.873 21.72C322.099 21.96 323.259 22.32 324.353 22.8C325.446 23.2533 326.406 23.84 327.233 24.56L323.953 28.4C323.366 27.9467 322.686 27.5333 321.913 27.16C321.139 26.7867 320.313 26.4933 319.433 26.28C318.579 26.04 317.739 25.92 316.913 25.92C316.459 25.92 316.019 25.9467 315.593 26C315.193 26.0533 314.846 26.16 314.553 26.32C314.259 26.4533 314.019 26.6267 313.833 26.84C313.673 27.0267 313.593 27.2667 313.593 27.56C313.593 27.8 313.659 28.0267 313.793 28.24C313.926 28.4533 314.126 28.6267 314.393 28.76C314.766 29 315.313 29.2133 316.033 29.4C316.779 29.5867 317.713 29.7867 318.833 30C320.459 30.3467 321.846 30.7467 322.993 31.2C324.139 31.6267 325.059 32.1467 325.753 32.76C326.313 33.1867 326.726 33.72 326.993 34.36C327.259 34.9733 327.393 35.6533 327.393 36.4C327.393 37.76 326.953 38.9733 326.073 40.04C325.219 41.08 324.046 41.9067 322.553 42.52C321.086 43.1067 319.379 43.4 317.433 43.4Z" fill="#1A79C6"/>
</svg>
