<svg width="262" height="31" viewBox="0 0 262 31" fill="none" xmlns="http://www.w3.org/2000/svg">
<path d="M4.4 30V8.4C4.4 6.82667 4.73333 5.44 5.4 4.24C6.09333 3.01333 7.05333 2.05333 8.28 1.36C9.50667 0.666665 10.9333 0.319998 12.56 0.319998C13.8133 0.319998 14.9067 0.479999 15.84 0.799999C16.8 1.12 17.6133 1.52 18.28 2L16.44 6.72C16.0667 6.50667 15.6267 6.32 15.12 6.16C14.64 5.97333 14.16 5.88 13.68 5.88C12.9867 5.88 12.4133 6 11.96 6.24C11.5333 6.45333 11.2133 6.77333 11 7.2C10.7867 7.62667 10.68 8.13333 10.68 8.72V30H7.56C6.89333 30 6.29333 30 5.76 30C5.22667 30 4.77333 30 4.4 30ZM0.68 14.8V9.52H16.8V14.8H0.68ZM24.16 30V0.4H30.56V30H24.16ZM48.4656 30.36C46.359 30.36 44.519 29.8933 42.9456 28.96C41.3723 28.0267 40.1323 26.7333 39.2256 25.08C38.3456 23.4 37.9056 21.4933 37.9056 19.36C37.9056 17.2 38.359 15.2933 39.2656 13.64C40.1723 11.9867 41.4256 10.6933 43.0256 9.76C44.6523 8.8 46.519 8.32 48.6256 8.32C49.8256 8.32 50.9323 8.48 51.9456 8.8C52.959 9.09333 53.839 9.50667 54.5856 10.04C55.359 10.5733 55.9856 11.16 56.4656 11.8C56.9723 12.44 57.3056 13.1067 57.4656 13.8H56.0656V8.76H62.3856V30H55.9456V24.56L57.3056 24.76C57.1456 25.4533 56.8123 26.1333 56.3056 26.8C55.799 27.4667 55.1456 28.0667 54.3456 28.6C53.5456 29.1333 52.639 29.56 51.6256 29.88C50.639 30.2 49.5856 30.36 48.4656 30.36ZM50.1856 24.96C51.3856 24.96 52.4256 24.7333 53.3056 24.28C54.2123 23.8267 54.9056 23.1867 55.3856 22.36C55.8923 21.5067 56.1456 20.5067 56.1456 19.36C56.1456 18.24 55.8923 17.2667 55.3856 16.44C54.9056 15.5867 54.2123 14.92 53.3056 14.44C52.4256 13.96 51.3856 13.72 50.1856 13.72C48.9856 13.72 47.9456 13.96 47.0656 14.44C46.1856 14.92 45.4923 15.5867 44.9856 16.44C44.5056 17.2667 44.2656 18.24 44.2656 19.36C44.2656 20.5067 44.5056 21.5067 44.9856 22.36C45.4923 23.1867 46.1856 23.8267 47.0656 24.28C47.9456 24.7333 48.9856 24.96 50.1856 24.96ZM80.3388 30.4C77.9921 30.4 75.8854 30.0667 74.0188 29.4C72.1788 28.7333 70.6988 27.7867 69.5788 26.56L73.4588 23.12C74.3654 23.9733 75.4454 24.6267 76.6988 25.08C77.9521 25.5333 79.2721 25.76 80.6588 25.76C81.0854 25.76 81.4988 25.72 81.8988 25.64C82.3254 25.56 82.6854 25.4533 82.9788 25.32C83.2988 25.16 83.5521 24.9733 83.7388 24.76C83.9254 24.5467 84.0188 24.28 84.0188 23.96C84.0188 23.4533 83.6988 23.0533 83.0588 22.76C82.6054 22.6 82.0321 22.44 81.3388 22.28C80.6454 22.12 79.8588 21.9467 78.9787 21.76C77.5121 21.4933 76.2188 21.1733 75.0988 20.8C74.0054 20.4 73.0854 19.9067 72.3388 19.32C71.6988 18.76 71.2054 18.12 70.8588 17.4C70.5121 16.68 70.3388 15.84 70.3388 14.88C70.3388 13.8933 70.5921 13 71.0988 12.2C71.6054 11.3733 72.3121 10.68 73.2188 10.12C74.1254 9.53333 75.1654 9.09333 76.3388 8.8C77.5121 8.48 78.7388 8.32 80.0188 8.32C81.2988 8.32 82.5521 8.45333 83.7788 8.72C85.0054 8.96 86.1654 9.32 87.2588 9.8C88.3521 10.2533 89.3121 10.84 90.1388 11.56L86.8588 15.4C86.2721 14.9467 85.5921 14.5333 84.8188 14.16C84.0454 13.7867 83.2188 13.4933 82.3388 13.28C81.4854 13.04 80.6454 12.92 79.8188 12.92C79.3654 12.92 78.9254 12.9467 78.4988 13C78.0988 13.0533 77.7521 13.16 77.4588 13.32C77.1654 13.4533 76.9254 13.6267 76.7388 13.84C76.5788 14.0267 76.4988 14.2667 76.4988 14.56C76.4988 14.8 76.5654 15.0267 76.6988 15.24C76.8321 15.4533 77.0321 15.6267 77.2988 15.76C77.6721 16 78.2188 16.2133 78.9388 16.4C79.6854 16.5867 80.6188 16.7867 81.7388 17C83.3654 17.3467 84.7521 17.7467 85.8988 18.2C87.0454 18.6267 87.9654 19.1467 88.6588 19.76C89.2188 20.1867 89.6321 20.72 89.8988 21.36C90.1654 21.9733 90.2988 22.6533 90.2988 23.4C90.2988 24.76 89.8588 25.9733 88.9788 27.04C88.1254 28.08 86.9521 28.9067 85.4588 29.52C83.9921 30.1067 82.2854 30.4 80.3388 30.4ZM97.6103 30V0.4H103.89V13.72L102.37 14.24C102.637 13.1733 103.197 12.2 104.05 11.32C104.93 10.4133 105.997 9.69333 107.25 9.16C108.504 8.6 109.837 8.32 111.25 8.32C113.064 8.32 114.584 8.69333 115.81 9.44C117.064 10.16 117.997 11.1867 118.61 12.52C119.25 13.8267 119.57 15.36 119.57 17.12V30H113.13V18.12C113.13 17.16 112.957 16.36 112.61 15.72C112.29 15.0533 111.797 14.5467 111.13 14.2C110.49 13.8533 109.744 13.6933 108.89 13.72C108.197 13.72 107.544 13.84 106.93 14.08C106.344 14.2933 105.824 14.6133 105.37 15.04C104.944 15.44 104.61 15.9067 104.37 16.44C104.13 16.9733 104.01 17.5467 104.01 18.16V30H100.85C99.9703 30 99.2636 30 98.7303 30C98.197 30 97.8236 30 97.6103 30ZM139.328 30.4C136.981 30.4 134.901 29.92 133.088 28.96C131.275 28 129.848 26.6933 128.808 25.04C127.768 23.36 127.248 21.4667 127.248 19.36C127.248 17.2533 127.768 15.3733 128.808 13.72C129.848 12.04 131.261 10.72 133.048 9.76C134.835 8.8 136.861 8.32 139.128 8.32C141.288 8.32 143.261 8.65333 145.048 9.32C146.835 9.96 148.288 10.8667 149.408 12.04L145.928 16.44C145.448 15.9867 144.875 15.56 144.208 15.16C143.541 14.76 142.821 14.4533 142.048 14.24C141.301 14 140.528 13.88 139.728 13.88C138.501 13.88 137.421 14.12 136.488 14.6C135.581 15.0533 134.875 15.6933 134.368 16.52C133.888 17.3467 133.648 18.2933 133.648 19.36C133.648 20.3733 133.901 21.2933 134.408 22.12C134.915 22.9467 135.621 23.6 136.528 24.08C137.435 24.56 138.488 24.8 139.688 24.8C140.648 24.8 141.501 24.7067 142.248 24.52C142.995 24.3333 143.675 24.08 144.288 23.76C144.928 23.4133 145.475 23.0267 145.928 22.6L149.408 26.96C148.208 27.9733 146.741 28.8 145.008 29.44C143.275 30.08 141.381 30.4 139.328 30.4ZM164.95 30.36C162.843 30.36 161.003 29.8933 159.43 28.96C157.857 28.0267 156.617 26.7333 155.71 25.08C154.83 23.4 154.39 21.4933 154.39 19.36C154.39 17.2 154.843 15.2933 155.75 13.64C156.657 11.9867 157.91 10.6933 159.51 9.76C161.137 8.8 163.003 8.32 165.11 8.32C166.31 8.32 167.417 8.48 168.43 8.8C169.443 9.09333 170.323 9.50667 171.07 10.04C171.843 10.5733 172.47 11.16 172.95 11.8C173.457 12.44 173.79 13.1067 173.95 13.8H172.55V8.76H178.87V30H172.43V24.56L173.79 24.76C173.63 25.4533 173.297 26.1333 172.79 26.8C172.283 27.4667 171.63 28.0667 170.83 28.6C170.03 29.1333 169.123 29.56 168.11 29.88C167.123 30.2 166.07 30.36 164.95 30.36ZM166.67 24.96C167.87 24.96 168.91 24.7333 169.79 24.28C170.697 23.8267 171.39 23.1867 171.87 22.36C172.377 21.5067 172.63 20.5067 172.63 19.36C172.63 18.24 172.377 17.2667 171.87 16.44C171.39 15.5867 170.697 14.92 169.79 14.44C168.91 13.96 167.87 13.72 166.67 13.72C165.47 13.72 164.43 13.96 163.55 14.44C162.67 14.92 161.977 15.5867 161.47 16.44C160.99 17.2667 160.75 18.24 160.75 19.36C160.75 20.5067 160.99 21.5067 161.47 22.36C161.977 23.1867 162.67 23.8267 163.55 24.28C164.43 24.7333 165.47 24.96 166.67 24.96ZM188.743 30V8.76H194.823L195.103 16.08L193.583 15.32C193.93 14.0133 194.53 12.84 195.383 11.8C196.263 10.7333 197.263 9.89333 198.383 9.28C199.53 8.64 200.743 8.32 202.023 8.32C202.716 8.32 203.37 8.38667 203.983 8.52C204.623 8.65333 205.17 8.82667 205.623 9.04L203.863 16.04C203.463 15.7467 202.916 15.52 202.223 15.36C201.556 15.2 200.876 15.12 200.183 15.12C199.41 15.12 198.703 15.2533 198.063 15.52C197.45 15.76 196.93 16.1067 196.503 16.56C196.076 16.9867 195.743 17.48 195.503 18.04C195.29 18.6 195.183 19.2 195.183 19.84V30H188.743ZM219.987 30.44C217.907 30.44 216.081 29.9733 214.507 29.04C212.934 28.08 211.707 26.7733 210.827 25.12C209.947 23.44 209.507 21.5333 209.507 19.4C209.507 17.2667 209.961 15.3733 210.867 13.72C211.774 12.04 213.027 10.72 214.627 9.76C216.254 8.8 218.121 8.32 220.227 8.32C221.401 8.32 222.494 8.48 223.507 8.8C224.521 9.09333 225.427 9.49333 226.227 10C227.054 10.5067 227.707 11.0933 228.187 11.76C228.694 12.4 228.987 13.0533 229.067 13.72L227.547 14.08V0.4H233.987V30H228.027L227.667 24.84L228.947 25.16C228.867 25.8267 228.574 26.48 228.067 27.12C227.561 27.7333 226.894 28.2933 226.067 28.8C225.267 29.28 224.347 29.68 223.307 30C222.267 30.2933 221.161 30.44 219.987 30.44ZM221.787 25.04C222.987 25.04 224.027 24.8 224.907 24.32C225.814 23.84 226.507 23.1867 226.987 22.36C227.467 21.5067 227.707 20.52 227.707 19.4C227.707 18.2533 227.467 17.2667 226.987 16.44C226.507 15.5867 225.814 14.9333 224.907 14.48C224.027 14 222.987 13.76 221.787 13.76C220.587 13.76 219.547 14 218.667 14.48C217.787 14.9333 217.094 15.5867 216.587 16.44C216.107 17.2667 215.867 18.2533 215.867 19.4C215.867 20.52 216.107 21.5067 216.587 22.36C217.094 23.1867 217.787 23.84 218.667 24.32C219.547 24.8 220.587 25.04 221.787 25.04ZM251.433 30.4C249.086 30.4 246.979 30.0667 245.113 29.4C243.273 28.7333 241.793 27.7867 240.673 26.56L244.553 23.12C245.459 23.9733 246.539 24.6267 247.793 25.08C249.046 25.5333 250.366 25.76 251.753 25.76C252.179 25.76 252.593 25.72 252.993 25.64C253.419 25.56 253.779 25.4533 254.073 25.32C254.393 25.16 254.646 24.9733 254.833 24.76C255.019 24.5467 255.113 24.28 255.113 23.96C255.113 23.4533 254.793 23.0533 254.153 22.76C253.699 22.6 253.126 22.44 252.433 22.28C251.739 22.12 250.953 21.9467 250.072 21.76C248.606 21.4933 247.313 21.1733 246.193 20.8C245.099 20.4 244.179 19.9067 243.433 19.32C242.793 18.76 242.299 18.12 241.953 17.4C241.606 16.68 241.433 15.84 241.433 14.88C241.433 13.8933 241.686 13 242.193 12.2C242.699 11.3733 243.406 10.68 244.313 10.12C245.219 9.53333 246.259 9.09333 247.433 8.8C248.606 8.48 249.833 8.32 251.113 8.32C252.393 8.32 253.646 8.45333 254.873 8.72C256.099 8.96 257.259 9.32 258.353 9.8C259.446 10.2533 260.406 10.84 261.233 11.56L257.953 15.4C257.366 14.9467 256.686 14.5333 255.913 14.16C255.139 13.7867 254.313 13.4933 253.433 13.28C252.579 13.04 251.739 12.92 250.913 12.92C250.459 12.92 250.019 12.9467 249.593 13C249.193 13.0533 248.846 13.16 248.553 13.32C248.259 13.4533 248.019 13.6267 247.833 13.84C247.673 14.0267 247.593 14.2667 247.593 14.56C247.593 14.8 247.659 15.0267 247.793 15.24C247.926 15.4533 248.126 15.6267 248.393 15.76C248.766 16 249.313 16.2133 250.033 16.4C250.779 16.5867 251.713 16.7867 252.833 17C254.459 17.3467 255.846 17.7467 256.993 18.2C258.139 18.6267 259.059 19.1467 259.753 19.76C260.313 20.1867 260.726 20.72 260.993 21.36C261.259 21.9733 261.393 22.6533 261.393 23.4C261.393 24.76 260.953 25.9733 260.073 27.04C259.219 28.08 258.046 28.9067 256.553 29.52C255.086 30.1067 253.379 30.4 251.433 30.4Z" fill="#1A79C6"/>
</svg>
