<svg width="379" height="78" viewBox="0 0 379 78" fill="none" xmlns="http://www.w3.org/2000/svg">
<rect x="10.6399" y="11.584" width="65.36" height="66.4158" rx="16" fill="#73C0FF" fill-opacity="0.8"/>
<rect width="65.36" height="66.4158" rx="16" fill="#73C0FF" fill-opacity="0.8"/>
<path d="M94.4 55V33.4C94.4 31.8267 94.7333 30.44 95.4 29.24C96.0933 28.0133 97.0533 27.0533 98.28 26.36C99.5067 25.6667 100.933 25.32 102.56 25.32C103.813 25.32 104.907 25.48 105.84 25.8C106.8 26.12 107.613 26.52 108.28 27L106.44 31.72C106.067 31.5067 105.627 31.32 105.12 31.16C104.64 30.9733 104.16 30.88 103.68 30.88C102.987 30.88 102.413 31 101.96 31.24C101.533 31.4533 101.213 31.7733 101 32.2C100.787 32.6267 100.68 33.1333 100.68 33.72V55H97.56C96.8933 55 96.2933 55 95.76 55C95.2267 55 94.7733 55 94.4 55ZM90.68 39.8V34.52H106.8V39.8H90.68ZM114.16 55V25.4H120.56V55H114.16ZM138.466 55.36C136.359 55.36 134.519 54.8933 132.946 53.96C131.372 53.0267 130.132 51.7333 129.226 50.08C128.346 48.4 127.906 46.4933 127.906 44.36C127.906 42.2 128.359 40.2933 129.266 38.64C130.172 36.9867 131.426 35.6933 133.026 34.76C134.652 33.8 136.519 33.32 138.626 33.32C139.826 33.32 140.932 33.48 141.946 33.8C142.959 34.0933 143.839 34.5067 144.586 35.04C145.359 35.5733 145.986 36.16 146.466 36.8C146.972 37.44 147.306 38.1067 147.466 38.8H146.066V33.76H152.386V55H145.946V49.56L147.306 49.76C147.146 50.4533 146.812 51.1333 146.306 51.8C145.799 52.4667 145.146 53.0667 144.346 53.6C143.546 54.1333 142.639 54.56 141.626 54.88C140.639 55.2 139.586 55.36 138.466 55.36ZM140.186 49.96C141.386 49.96 142.426 49.7333 143.306 49.28C144.212 48.8267 144.906 48.1867 145.386 47.36C145.892 46.5067 146.146 45.5067 146.146 44.36C146.146 43.24 145.892 42.2667 145.386 41.44C144.906 40.5867 144.212 39.92 143.306 39.44C142.426 38.96 141.386 38.72 140.186 38.72C138.986 38.72 137.946 38.96 137.066 39.44C136.186 39.92 135.492 40.5867 134.986 41.44C134.506 42.2667 134.266 43.24 134.266 44.36C134.266 45.5067 134.506 46.5067 134.986 47.36C135.492 48.1867 136.186 48.8267 137.066 49.28C137.946 49.7333 138.986 49.96 140.186 49.96ZM170.339 55.4C167.992 55.4 165.885 55.0667 164.019 54.4C162.179 53.7333 160.699 52.7867 159.579 51.56L163.459 48.12C164.365 48.9733 165.445 49.6267 166.699 50.08C167.952 50.5333 169.272 50.76 170.659 50.76C171.085 50.76 171.499 50.72 171.899 50.64C172.325 50.56 172.685 50.4533 172.979 50.32C173.299 50.16 173.552 49.9733 173.739 49.76C173.925 49.5467 174.019 49.28 174.019 48.96C174.019 48.4533 173.699 48.0533 173.059 47.76C172.605 47.6 172.032 47.44 171.339 47.28C170.645 47.12 169.859 46.9467 168.979 46.76C167.512 46.4933 166.219 46.1733 165.099 45.8C164.005 45.4 163.085 44.9067 162.339 44.32C161.699 43.76 161.205 43.12 160.859 42.4C160.512 41.68 160.339 40.84 160.339 39.88C160.339 38.8933 160.592 38 161.099 37.2C161.605 36.3733 162.312 35.68 163.219 35.12C164.125 34.5333 165.165 34.0933 166.339 33.8C167.512 33.48 168.739 33.32 170.019 33.32C171.299 33.32 172.552 33.4533 173.779 33.72C175.005 33.96 176.165 34.32 177.259 34.8C178.352 35.2533 179.312 35.84 180.139 36.56L176.859 40.4C176.272 39.9467 175.592 39.5333 174.819 39.16C174.045 38.7867 173.219 38.4933 172.339 38.28C171.485 38.04 170.645 37.92 169.819 37.92C169.365 37.92 168.925 37.9467 168.499 38C168.099 38.0533 167.752 38.16 167.459 38.32C167.165 38.4533 166.925 38.6267 166.739 38.84C166.579 39.0267 166.499 39.2667 166.499 39.56C166.499 39.8 166.565 40.0267 166.699 40.24C166.832 40.4533 167.032 40.6267 167.299 40.76C167.672 41 168.219 41.2133 168.939 41.4C169.685 41.5867 170.619 41.7867 171.739 42C173.365 42.3467 174.752 42.7467 175.899 43.2C177.045 43.6267 177.965 44.1467 178.659 44.76C179.219 45.1867 179.632 45.72 179.899 46.36C180.165 46.9733 180.299 47.6533 180.299 48.4C180.299 49.76 179.859 50.9733 178.979 52.04C178.125 53.08 176.952 53.9067 175.459 54.52C173.992 55.1067 172.285 55.4 170.339 55.4ZM187.61 55V25.4H193.89V38.72L192.37 39.24C192.637 38.1733 193.197 37.2 194.05 36.32C194.93 35.4133 195.997 34.6933 197.25 34.16C198.504 33.6 199.837 33.32 201.25 33.32C203.064 33.32 204.584 33.6933 205.81 34.44C207.064 35.16 207.997 36.1867 208.61 37.52C209.25 38.8267 209.57 40.36 209.57 42.12V55H203.13V43.12C203.13 42.16 202.957 41.36 202.61 40.72C202.29 40.0533 201.797 39.5467 201.13 39.2C200.49 38.8533 199.744 38.6933 198.89 38.72C198.197 38.72 197.544 38.84 196.93 39.08C196.344 39.2933 195.824 39.6133 195.37 40.04C194.944 40.44 194.61 40.9067 194.37 41.44C194.13 41.9733 194.01 42.5467 194.01 43.16V55H190.85C189.97 55 189.264 55 188.73 55C188.197 55 187.824 55 187.61 55ZM229.328 55.4C226.981 55.4 224.901 54.92 223.088 53.96C221.275 53 219.848 51.6933 218.808 50.04C217.768 48.36 217.248 46.4667 217.248 44.36C217.248 42.2533 217.768 40.3733 218.808 38.72C219.848 37.04 221.261 35.72 223.048 34.76C224.835 33.8 226.861 33.32 229.128 33.32C231.288 33.32 233.261 33.6533 235.048 34.32C236.835 34.96 238.288 35.8667 239.408 37.04L235.928 41.44C235.448 40.9867 234.875 40.56 234.208 40.16C233.541 39.76 232.821 39.4533 232.048 39.24C231.301 39 230.528 38.88 229.728 38.88C228.501 38.88 227.421 39.12 226.488 39.6C225.581 40.0533 224.875 40.6933 224.368 41.52C223.888 42.3467 223.648 43.2933 223.648 44.36C223.648 45.3733 223.901 46.2933 224.408 47.12C224.915 47.9467 225.621 48.6 226.528 49.08C227.435 49.56 228.488 49.8 229.688 49.8C230.648 49.8 231.501 49.7067 232.248 49.52C232.995 49.3333 233.675 49.08 234.288 48.76C234.928 48.4133 235.475 48.0267 235.928 47.6L239.408 51.96C238.208 52.9733 236.741 53.8 235.008 54.44C233.275 55.08 231.381 55.4 229.328 55.4ZM254.95 55.36C252.843 55.36 251.003 54.8933 249.43 53.96C247.857 53.0267 246.617 51.7333 245.71 50.08C244.83 48.4 244.39 46.4933 244.39 44.36C244.39 42.2 244.843 40.2933 245.75 38.64C246.657 36.9867 247.91 35.6933 249.51 34.76C251.137 33.8 253.003 33.32 255.11 33.32C256.31 33.32 257.417 33.48 258.43 33.8C259.443 34.0933 260.323 34.5067 261.07 35.04C261.843 35.5733 262.47 36.16 262.95 36.8C263.457 37.44 263.79 38.1067 263.95 38.8H262.55V33.76H268.87V55H262.43V49.56L263.79 49.76C263.63 50.4533 263.297 51.1333 262.79 51.8C262.283 52.4667 261.63 53.0667 260.83 53.6C260.03 54.1333 259.123 54.56 258.11 54.88C257.123 55.2 256.07 55.36 254.95 55.36ZM256.67 49.96C257.87 49.96 258.91 49.7333 259.79 49.28C260.697 48.8267 261.39 48.1867 261.87 47.36C262.377 46.5067 262.63 45.5067 262.63 44.36C262.63 43.24 262.377 42.2667 261.87 41.44C261.39 40.5867 260.697 39.92 259.79 39.44C258.91 38.96 257.87 38.72 256.67 38.72C255.47 38.72 254.43 38.96 253.55 39.44C252.67 39.92 251.977 40.5867 251.47 41.44C250.99 42.2667 250.75 43.24 250.75 44.36C250.75 45.5067 250.99 46.5067 251.47 47.36C251.977 48.1867 252.67 48.8267 253.55 49.28C254.43 49.7333 255.47 49.96 256.67 49.96ZM278.743 55V33.76H284.823L285.103 41.08L283.583 40.32C283.93 39.0133 284.53 37.84 285.383 36.8C286.263 35.7333 287.263 34.8933 288.383 34.28C289.53 33.64 290.743 33.32 292.023 33.32C292.716 33.32 293.37 33.3867 293.983 33.52C294.623 33.6533 295.17 33.8267 295.623 34.04L293.863 41.04C293.463 40.7467 292.916 40.52 292.223 40.36C291.556 40.2 290.876 40.12 290.183 40.12C289.41 40.12 288.703 40.2533 288.063 40.52C287.45 40.76 286.93 41.1067 286.503 41.56C286.076 41.9867 285.743 42.48 285.503 43.04C285.29 43.6 285.183 44.2 285.183 44.84V55H278.743ZM309.987 55.44C307.907 55.44 306.081 54.9733 304.507 54.04C302.934 53.08 301.707 51.7733 300.827 50.12C299.947 48.44 299.507 46.5333 299.507 44.4C299.507 42.2667 299.961 40.3733 300.867 38.72C301.774 37.04 303.027 35.72 304.627 34.76C306.254 33.8 308.121 33.32 310.227 33.32C311.401 33.32 312.494 33.48 313.507 33.8C314.521 34.0933 315.427 34.4933 316.227 35C317.054 35.5067 317.707 36.0933 318.187 36.76C318.694 37.4 318.987 38.0533 319.067 38.72L317.547 39.08V25.4H323.987V55H318.027L317.667 49.84L318.947 50.16C318.867 50.8267 318.574 51.48 318.067 52.12C317.561 52.7333 316.894 53.2933 316.067 53.8C315.267 54.28 314.347 54.68 313.307 55C312.267 55.2933 311.161 55.44 309.987 55.44ZM311.787 50.04C312.987 50.04 314.027 49.8 314.907 49.32C315.814 48.84 316.507 48.1867 316.987 47.36C317.467 46.5067 317.707 45.52 317.707 44.4C317.707 43.2533 317.467 42.2667 316.987 41.44C316.507 40.5867 315.814 39.9333 314.907 39.48C314.027 39 312.987 38.76 311.787 38.76C310.587 38.76 309.547 39 308.667 39.48C307.787 39.9333 307.094 40.5867 306.587 41.44C306.107 42.2667 305.867 43.2533 305.867 44.4C305.867 45.52 306.107 46.5067 306.587 47.36C307.094 48.1867 307.787 48.84 308.667 49.32C309.547 49.8 310.587 50.04 311.787 50.04ZM341.433 55.4C339.086 55.4 336.979 55.0667 335.113 54.4C333.273 53.7333 331.793 52.7867 330.673 51.56L334.553 48.12C335.459 48.9733 336.539 49.6267 337.793 50.08C339.046 50.5333 340.366 50.76 341.753 50.76C342.179 50.76 342.593 50.72 342.993 50.64C343.419 50.56 343.779 50.4533 344.073 50.32C344.393 50.16 344.646 49.9733 344.833 49.76C345.019 49.5467 345.113 49.28 345.113 48.96C345.113 48.4533 344.793 48.0533 344.153 47.76C343.699 47.6 343.126 47.44 342.433 47.28C341.739 47.12 340.953 46.9467 340.072 46.76C338.606 46.4933 337.313 46.1733 336.193 45.8C335.099 45.4 334.179 44.9067 333.433 44.32C332.793 43.76 332.299 43.12 331.953 42.4C331.606 41.68 331.433 40.84 331.433 39.88C331.433 38.8933 331.686 38 332.193 37.2C332.699 36.3733 333.406 35.68 334.313 35.12C335.219 34.5333 336.259 34.0933 337.433 33.8C338.606 33.48 339.833 33.32 341.113 33.32C342.393 33.32 343.646 33.4533 344.873 33.72C346.099 33.96 347.259 34.32 348.353 34.8C349.446 35.2533 350.406 35.84 351.233 36.56L347.953 40.4C347.366 39.9467 346.686 39.5333 345.913 39.16C345.139 38.7867 344.313 38.4933 343.433 38.28C342.579 38.04 341.739 37.92 340.913 37.92C340.459 37.92 340.019 37.9467 339.593 38C339.193 38.0533 338.846 38.16 338.553 38.32C338.259 38.4533 338.019 38.6267 337.833 38.84C337.673 39.0267 337.593 39.2667 337.593 39.56C337.593 39.8 337.659 40.0267 337.793 40.24C337.926 40.4533 338.126 40.6267 338.393 40.76C338.766 41 339.313 41.2133 340.033 41.4C340.779 41.5867 341.713 41.7867 342.833 42C344.459 42.3467 345.846 42.7467 346.993 43.2C348.139 43.6267 349.059 44.1467 349.753 44.76C350.313 45.1867 350.726 45.72 350.993 46.36C351.259 46.9733 351.393 47.6533 351.393 48.4C351.393 49.76 350.953 50.9733 350.073 52.04C349.219 53.08 348.046 53.9067 346.553 54.52C345.086 55.1067 343.379 55.4 341.433 55.4Z" fill="#1A79C6"/>
</svg>
