<svg width="24" height="25" viewBox="0 0 24 25" fill="none" xmlns="http://www.w3.org/2000/svg">
<g opacity="0.32">
<path d="M12 10.8916C16.7038 10.8916 19.4773 10.7897 20.868 10.7161C21.5117 10.682 22 10.1493 22 9.50472V8.33592C22 7.88622 21.8551 7.44502 21.5366 7.12752C19.6683 5.26512 15.3747 2.86486 12.465 2.22972C12.1575 2.1626 11.8425 2.1626 11.535 2.22972C8.62535 2.86486 4.33171 5.26512 2.4634 7.12752C2.1449 7.44502 2 7.88622 2 8.33592V9.50472C2 10.1493 2.48829 10.682 3.13195 10.7161C4.52271 10.7897 7.29615 10.8916 12 10.8916Z" fill="#637381"/>
<path d="M2.1787 18.8703C2.30863 18.4931 2.68628 18.3215 3.0846 18.2989C4.11911 18.2402 6.6517 18.1416 12 18.1416C17.3483 18.1416 19.8809 18.2402 20.9154 18.2989C21.3137 18.3215 21.6914 18.4931 21.8213 18.8703C21.9176 19.1498 22 19.5591 22 20.1416C22 20.7241 21.9176 21.1335 21.8213 21.413C21.6914 21.7902 21.3137 21.9617 20.9154 21.9843C19.8809 22.0431 17.3483 22.1416 12 22.1416C6.6517 22.1416 4.11911 22.0431 3.0846 21.9843C2.68628 21.9617 2.30863 21.7902 2.1787 21.413C2.08243 21.1335 2 20.7241 2 20.1416C2 19.5591 2.08243 19.1498 2.1787 18.8703Z" fill="#637381"/>
</g>
<path d="M12 9.1416C13.1046 9.1416 14 8.24617 14 7.1416C14 6.03703 13.1046 5.1416 12 5.1416C10.8954 5.1416 10 6.03703 10 7.1416C10 8.24617 10.8954 9.1416 12 9.1416Z" fill="#637381"/>
<path d="M13.9467 10.8854C13.3382 10.8894 12.6899 10.8916 12 10.8916C11.3101 10.8916 10.6618 10.8894 10.0533 10.8854C10.0277 11.5367 10 12.6927 10 14.6416C10 16.3611 10.0216 17.4633 10.0442 18.1463C10.65 18.1433 11.3009 18.1416 12 18.1416C12.6991 18.1416 13.35 18.1433 13.9558 18.1463C13.9784 17.4633 14 16.3611 14 14.6416C14 12.6927 13.9723 11.5367 13.9467 10.8854Z" fill="#637381"/>
<path d="M16.0542 10.8628C16.0284 11.5098 16 12.67 16 14.6416C16 16.3759 16.022 17.4823 16.0448 18.1639C17.8468 18.1859 19.1022 18.2208 19.9521 18.2539C19.976 17.5812 20 16.4544 20 14.6416C20 12.5601 19.9684 11.383 19.9415 10.7593C19.0121 10.7978 17.7369 10.8372 16.0542 10.8628Z" fill="#637381"/>
<path d="M4.05845 10.7593C4.98788 10.7978 6.26314 10.8372 7.94583 10.8628C7.97163 11.5098 8 12.67 8 14.6416C8 16.3759 7.97805 17.4823 7.9552 18.1639C6.15324 18.1859 4.89779 18.2208 4.04791 18.2539C4.024 17.5812 4 16.4544 4 14.6416C4 12.5601 4.03165 11.383 4.05845 10.7593Z" fill="#637381"/>
</svg>
