<svg width="24" height="25" viewBox="0 0 24 25" fill="none" xmlns="http://www.w3.org/2000/svg">
<path opacity="0.5" d="M16.4155 18.1156C16.2064 18.7559 15.8391 19.3331 15.3475 19.7936C14.6165 20.4786 13.4885 20.7806 11.2335 21.3846C8.97846 21.9886 7.85046 22.2916 6.87546 22.0636C6.10507 21.884 5.40524 21.4799 4.86446 20.9026C4.17946 20.1716 3.87646 19.0436 3.27246 16.7886L2.75546 14.8566C2.15046 12.6016 1.84846 11.4736 2.07546 10.4986C2.25537 9.7281 2.65975 9.02826 3.23746 8.48761C3.96846 7.80261 5.09646 7.50061 7.35146 6.89561C7.77746 6.78161 8.16446 6.67761 8.51646 6.58661L8.27246 7.49261L7.75546 9.42461C7.15046 11.6796 6.84846 12.8066 7.07546 13.7826C7.25537 14.5531 7.65975 15.253 8.23746 15.7936C8.96846 16.4786 10.0965 16.7806 12.3515 17.3856C14.3835 17.9296 15.5005 18.2286 16.4155 18.1156Z" fill="#637381"/>
<path fill-rule="evenodd" clip-rule="evenodd" d="M20.83 10.8566L20.312 12.7886C19.707 15.0436 19.405 16.1716 18.72 16.9026C18.1795 17.4798 17.48 17.8838 16.71 18.0636C16.613 18.0866 16.515 18.1036 16.415 18.1156C15.5 18.2286 14.383 17.9296 12.351 17.3856C10.096 16.7806 8.96799 16.4786 8.23699 15.7936C7.65966 15.2528 7.25563 14.553 7.07599 13.7826C6.84799 12.8066 7.14999 11.6796 7.75499 9.42459L8.27199 7.49259L8.51599 6.58759C8.97099 4.9216 9.27699 4.0046 9.86399 3.3776C10.4046 2.80079 11.1041 2.39714 11.874 2.2176C12.85 1.9896 13.978 2.2916 16.234 2.8966C18.488 3.5006 19.616 3.80259 20.347 4.48659C20.9245 5.02765 21.3285 5.72785 21.508 6.49859C21.736 7.47459 21.434 8.60159 20.83 10.8566ZM11.052 9.9466C11.0775 9.85144 11.1215 9.76225 11.1815 9.68411C11.2415 9.60598 11.3164 9.54043 11.4017 9.49121C11.487 9.44199 11.5812 9.41007 11.6789 9.39727C11.7766 9.38446 11.8759 9.39103 11.971 9.41659L16.801 10.7116C16.8986 10.7347 16.9907 10.7773 17.0716 10.8366C17.1525 10.896 17.2207 10.971 17.2721 11.0572C17.3235 11.1434 17.3571 11.239 17.3709 11.3384C17.3846 11.4379 17.3783 11.539 17.3523 11.6359C17.3262 11.7329 17.281 11.8236 17.2193 11.9027C17.1575 11.9818 17.0805 12.0478 16.9929 12.0966C16.9052 12.1454 16.8086 12.1762 16.7088 12.187C16.609 12.1978 16.5081 12.1885 16.412 12.1596L11.582 10.8656C11.39 10.814 11.2264 10.6884 11.127 10.5163C11.0277 10.3441 11.0007 10.1386 11.052 9.9466ZM10.276 12.8446C10.3276 12.6526 10.4532 12.489 10.6253 12.3896C10.7974 12.2903 11.002 12.2633 11.194 12.3146L14.092 13.0916C14.1901 13.1142 14.2827 13.1564 14.3641 13.2156C14.4456 13.2748 14.5143 13.3498 14.5662 13.4361C14.6181 13.5224 14.652 13.6183 14.666 13.718C14.68 13.8177 14.6738 13.9192 14.6478 14.0165C14.6217 14.1138 14.5763 14.2048 14.5143 14.2841C14.4523 14.3635 14.375 14.4295 14.2869 14.4784C14.1988 14.5272 14.1018 14.5578 14.0017 14.5683C13.9015 14.5788 13.8003 14.569 13.704 14.5396L10.806 13.7636C10.7108 13.7381 10.6216 13.6941 10.5435 13.634C10.4654 13.574 10.3998 13.4992 10.3506 13.4139C10.3014 13.3286 10.2695 13.2343 10.2567 13.1367C10.2439 13.039 10.2504 12.9397 10.276 12.8446Z" fill="#637381"/>
</svg>
