<svg width="24" height="25" viewBox="0 0 24 25" fill="none" xmlns="http://www.w3.org/2000/svg">
<path opacity="0.32" fill-rule="evenodd" clip-rule="evenodd" d="M17.7556 2.44239C17.3519 2.25531 17.1172 2.23078 17.0632 2.22756C15.766 2.17637 14.1085 2.1416 11.999 2.1416C7.72437 2.1416 5.30557 2.28436 3.97974 2.41731C3.04019 2.51153 2.36895 3.18277 2.27473 4.12232C2.14178 5.44815 1.99902 7.86695 1.99902 12.1416C1.99902 16.7864 2.16757 19.7457 2.30894 21.411C2.37429 22.1807 3.24545 22.5196 3.83887 22.0251L5.49902 20.6416L6.86612 22.0087C7.22642 22.369 7.80002 22.4008 8.19792 22.0825L9.99902 20.6416L11.2919 21.9345C11.6824 22.325 12.3156 22.325 12.7061 21.9345L13.999 20.6416L15.8001 22.0825C16.198 22.4008 16.7716 22.369 17.1319 22.0087L18.499 20.6416L20.1592 22.0251C20.7526 22.5196 21.6238 22.1807 21.6891 21.411C21.8305 19.7457 21.999 16.7864 21.999 12.1416C21.999 10.0145 21.9637 8.34688 21.9118 7.04482C21.4743 7.09861 20.8561 7.14205 20 7.14205C19.3705 7.14205 18.8696 7.11855 18.4746 7.08475C17.6146 7.0111 17.0559 6.35355 17.0228 5.491C17.0092 5.13405 17 4.69035 17 4.14205C17 3.25558 17.0239 2.64252 17.0522 2.22754C17.0522 2.22754 17.2925 2.22795 17.7556 2.44239ZM11.6589 15.4088C12.2031 15.4088 12.5962 15.3168 12.8381 15.1328C13.0901 14.9488 13.2161 14.7233 13.2161 14.4565C13.2161 14.2173 13.1203 14.0241 12.9288 13.8769C12.7373 13.7297 12.4501 13.6008 12.0671 13.4904L11.2355 13.242C10.8223 13.1223 10.4493 12.9935 10.1167 12.8555C9.78412 12.7175 9.50192 12.5519 9.27007 12.3586C9.03827 12.1654 8.85682 11.9354 8.72582 11.6686C8.59477 11.4018 8.52927 11.0843 8.52927 10.7162C8.52927 10.0905 8.74092 9.5707 9.16427 9.15665C9.58757 8.7426 10.1923 8.46655 10.9785 8.32855V7.936C10.9785 7.5278 11.2613 7.163 11.6691 7.14505C11.7215 7.14275 11.7736 7.1416 11.8252 7.1416C12.1981 7.1416 12.4652 7.2014 12.6265 7.321C12.7978 7.44065 12.8835 7.65685 12.8835 7.9697V8.27335C13.5285 8.33775 14.0527 8.48035 14.4558 8.7012C14.859 8.9128 15.0606 9.19345 15.0606 9.5431C15.0606 9.69885 15.0194 9.84305 14.9481 9.9739C14.7585 10.3219 14.2851 10.2962 13.9096 10.1695C13.8023 10.1332 13.687 10.0993 13.5638 10.0675C13.1808 9.95715 12.7625 9.90195 12.309 9.90195C11.805 9.90195 11.427 9.98015 11.1751 10.1366C10.9331 10.2838 10.8122 10.477 10.8122 10.7162C10.8122 10.9095 10.8928 11.0659 11.0541 11.1855C11.2254 11.3051 11.4825 11.4155 11.8252 11.5167L12.6718 11.7514C13.5789 12.009 14.2744 12.3494 14.7582 12.7727C15.2521 13.1959 15.499 13.7664 15.499 14.4841C15.499 15.119 15.2773 15.6573 14.8338 16.0989C14.3903 16.5314 13.7402 16.8213 12.8835 16.9685V17.3472C12.8835 17.7555 12.6007 18.1202 12.1929 18.1381C12.1405 18.1404 12.0884 18.1416 12.0368 18.1416C11.6639 18.1416 11.3918 18.0818 11.2204 17.9622C11.0591 17.8426 10.9785 17.6263 10.9785 17.3135V17.0374C10.2427 16.9638 9.64302 16.8028 9.17937 16.5544C8.72582 16.2967 8.49902 15.9747 8.49902 15.5882C8.49902 15.3625 8.58567 15.1665 8.72467 15.0017C8.97352 14.7067 9.41662 14.7799 9.75947 14.9571C9.90572 15.0327 10.0651 15.1051 10.2377 15.1742C10.6509 15.3307 11.1247 15.4088 11.6589 15.4088Z" fill="#637381"/>
<path d="M21.9128 7.0447C21.4752 7.09855 20.8567 7.14205 20 7.14205C19.3705 7.14205 18.8696 7.11855 18.4746 7.08475C17.6146 7.0111 17.0559 6.35355 17.0228 5.491C17.0092 5.13405 17 4.69035 17 4.14205C17 3.25558 17.0239 2.64252 17.0522 2.22754C17.0522 2.22754 18.0872 2.22932 20 4.14205C21.9128 6.0548 21.9128 7.0447 21.9128 7.0447Z" fill="#637381"/>
<path d="M11.6599 15.4088C12.2041 15.4088 12.5972 15.3168 12.8391 15.1328C13.091 14.9488 13.217 14.7233 13.217 14.4565C13.217 14.2173 13.1213 14.0241 12.9298 13.8769C12.7383 13.7297 12.4511 13.6008 12.0681 13.4904L11.2365 13.242C10.8232 13.1223 10.4503 12.9935 10.1177 12.8555C9.7851 12.7175 9.5029 12.5519 9.27105 12.3586C9.03925 12.1654 8.8578 11.9354 8.7268 11.6686C8.59575 11.4018 8.53025 11.0843 8.53025 10.7162C8.53025 10.0905 8.7419 9.5707 9.16525 9.15665C9.58855 8.7426 10.1933 8.46655 10.9795 8.32855V7.936C10.9795 7.5278 11.2623 7.163 11.6701 7.14505C11.7225 7.14275 11.7745 7.1416 11.8261 7.1416C12.199 7.1416 12.4662 7.2014 12.6274 7.321C12.7988 7.44065 12.8844 7.65685 12.8844 7.9697V8.27335C13.5295 8.33775 14.0537 8.48035 14.4568 8.7012C14.86 8.9128 15.0616 9.19345 15.0616 9.5431C15.0616 9.69885 15.0203 9.84305 14.9491 9.9739C14.7594 10.3219 14.2861 10.2962 13.9106 10.1695C13.8032 10.1332 13.688 10.0993 13.5648 10.0675C13.1818 9.95715 12.7635 9.90195 12.3099 9.90195C11.806 9.90195 11.428 9.98015 11.1761 10.1366C10.9341 10.2838 10.8132 10.477 10.8132 10.7162C10.8132 10.9095 10.8938 11.0659 11.0551 11.1855C11.2264 11.3051 11.4834 11.4155 11.8261 11.5167L12.6728 11.7514C13.5799 12.009 14.2754 12.3494 14.7592 12.7727C15.253 13.1959 15.5 13.7664 15.5 14.4841C15.5 15.119 15.2783 15.6573 14.8348 16.0989C14.3913 16.5314 13.7412 16.8213 12.8844 16.9685V17.3472C12.8844 17.7555 12.6016 18.1202 12.1938 18.1381C12.1415 18.1404 12.0894 18.1416 12.0378 18.1416C11.6648 18.1416 11.3928 18.0818 11.2214 17.9622C11.0601 17.8426 10.9795 17.6263 10.9795 17.3135V17.0374C10.2437 16.9638 9.644 16.8028 9.18035 16.5544C8.7268 16.2967 8.5 15.9747 8.5 15.5882C8.5 15.3625 8.58665 15.1665 8.72565 15.0017C8.9745 14.7067 9.4176 14.7799 9.76045 14.9571C9.9067 15.0327 10.0661 15.1051 10.2387 15.1742C10.6519 15.3307 11.1257 15.4088 11.6599 15.4088Z" fill="#637381"/>
</svg>
