<svg width="24" height="25" viewBox="0 0 24 25" fill="none" xmlns="http://www.w3.org/2000/svg">
<path opacity="0.32" d="M12 22.1416C17.5228 22.1416 22 20.5746 22 18.6416C22 16.7086 17.5228 15.1416 12 15.1416C6.47715 15.1416 2 16.7086 2 18.6416C2 20.5746 6.47715 22.1416 12 22.1416Z" fill="#637381"/>
<path d="M12 1.3916C12.1989 1.3916 12.3897 1.47062 12.5303 1.61127C12.671 1.75192 12.75 1.94269 12.75 2.1416V3.1776L17.758 5.6816L17.812 5.7086C18.546 6.0756 19.172 6.3886 19.608 6.6926C20.05 7.0016 20.514 7.4486 20.514 8.1416C20.514 8.8346 20.05 9.2816 19.608 9.5906C19.172 9.8946 18.546 10.2076 17.812 10.5746L12.75 13.1046V18.1416C12.75 18.3405 12.671 18.5313 12.5303 18.6719C12.3897 18.8126 12.1989 18.8916 12 18.8916C11.8011 18.8916 11.6103 18.8126 11.4697 18.6719C11.329 18.5313 11.25 18.3405 11.25 18.1416V2.1416C11.25 1.94269 11.329 1.75192 11.4697 1.61127C11.6103 1.47062 11.8011 1.3916 12 1.3916Z" fill="#637381"/>
</svg>
