<svg width="24" height="24" viewBox="0 0 24 24" fill="none" xmlns="http://www.w3.org/2000/svg">
<path opacity="0.32" d="M2.162 8.5C2 9.603 2 11.05 2 13C2 16.771 2 18.657 3.172 19.828C4.343 21 6.229 21 10 21H14C17.771 21 19.657 21 20.828 19.828C22 18.657 22 16.771 22 13C22 11.05 22 9.603 21.838 8.5C19.561 9.98 18.102 10.923 16.75 11.505V12C16.7511 12.0985 16.7327 12.1962 16.696 12.2876C16.6593 12.379 16.6049 12.4623 16.536 12.5327C16.3968 12.6748 16.2069 12.7559 16.008 12.758C15.8091 12.7601 15.6175 12.6831 15.4753 12.544C15.3332 12.4048 15.2521 12.2149 15.25 12.016C13.1197 12.5776 10.8803 12.5776 8.75 12.016C8.74788 12.2149 8.66683 12.4048 8.52467 12.544C8.38252 12.6831 8.19091 12.7601 7.992 12.758C7.79309 12.7559 7.60317 12.6748 7.46401 12.5327C7.32486 12.3905 7.24788 12.1989 7.25 12V11.504C5.898 10.924 4.44 9.98 2.162 8.5Z" fill="#1877F2"/>
<path fill-rule="evenodd" clip-rule="evenodd" d="M10.5811 2.25036H10.5611C10.4471 2.25036 10.3591 2.25036 10.2751 2.25536C9.75548 2.28694 9.25555 2.46534 8.83336 2.76982C8.41116 3.07429 8.08406 3.49233 7.89005 3.97536C7.84743 4.08876 7.80742 4.20312 7.77005 4.31836L7.76605 4.33036C7.6629 4.60302 7.48851 4.84302 7.26105 5.02536C7.03405 5.03336 6.81705 5.04236 6.60905 5.05536C4.96505 5.15136 3.92205 5.42136 3.17105 6.17236C2.92705 6.41636 2.73305 6.69236 2.58105 7.01036C2.63951 7.03042 2.69527 7.05762 2.74705 7.09136C4.84705 8.45636 6.16705 9.31136 7.26305 9.85836C7.29773 9.67451 7.39986 9.51027 7.54941 9.39785C7.69896 9.28544 7.88512 9.23298 8.07136 9.25076C8.2576 9.26854 8.43046 9.35529 8.55603 9.49398C8.6816 9.63267 8.7508 9.81327 8.75005 10.0004V10.4584C10.8701 11.0984 13.1301 11.0984 15.2501 10.4584V10.0004C15.2506 9.81418 15.3204 9.63486 15.4458 9.49728C15.5713 9.3597 15.7434 9.27369 15.9287 9.25598C16.114 9.23827 16.2993 9.29013 16.4486 9.40146C16.5978 9.5128 16.7003 9.67566 16.7361 9.85836C17.8331 9.31036 19.1531 8.45636 21.2531 7.09136C21.3052 7.05758 21.3613 7.03038 21.4201 7.01036C21.2719 6.69932 21.0717 6.41591 20.8281 6.17236C20.0781 5.42236 19.0351 5.15236 17.3911 5.05436C17.1941 5.04336 16.9881 5.03436 16.7731 5.02636C16.5214 4.82134 16.3271 4.5547 16.2091 4.25236L16.2051 4.24336C16.1691 4.13636 16.1411 4.05236 16.1101 3.97436C15.9159 3.49152 15.5887 3.07369 15.1665 2.7694C14.7444 2.46511 14.2445 2.28686 13.7251 2.25536C13.6298 2.25086 13.5344 2.24919 13.4391 2.25036H10.5811ZM14.8181 4.81636L14.8131 4.80536L14.8081 4.79336L14.8031 4.78136L14.8001 4.77136L14.7981 4.76636L14.7941 4.75436L14.7901 4.74236L14.7881 4.73636L14.7851 4.72836L14.7831 4.72136L14.7811 4.71536C14.7616 4.6545 14.7406 4.59415 14.7181 4.53436C14.6299 4.31478 14.4812 4.12473 14.2894 3.9863C14.0975 3.84787 13.8702 3.76675 13.6341 3.75236C13.5624 3.74986 13.4907 3.74919 13.4191 3.75036H10.5811C10.4381 3.75036 10.3981 3.75036 10.3661 3.75236C10.1299 3.76675 9.90264 3.84787 9.71075 3.9863C9.51886 4.12473 9.3702 4.31478 9.28205 4.53436L9.27905 4.54136L9.27105 4.56236C9.24337 4.63844 9.21736 4.71513 9.19305 4.79236L9.19205 4.79836L9.18905 4.80536L9.18705 4.81336L9.18505 4.81936L9.18105 4.83136L9.17605 4.84336L9.17505 4.84836L9.17105 4.85836L9.16605 4.87036L9.16205 4.88236L9.15705 4.89236C9.14312 4.92866 9.12845 4.96566 9.11305 5.00136L10.0001 5.00036H14.8961C14.8677 4.93992 14.8423 4.87855 14.8181 4.81636Z" fill="#1877F2"/>
</svg>
