<svg width="20" height="19" viewBox="0 0 20 19" fill="none" xmlns="http://www.w3.org/2000/svg">
<path d="M15.5607 19C15.4008 19.0007 15.2431 18.9629 15.1007 18.89L10.0007 16.22L4.90074 18.89C4.73513 18.9771 4.54842 19.016 4.36182 19.0022C4.17522 18.9885 3.99622 18.9226 3.84517 18.8122C3.69412 18.7018 3.57708 18.5512 3.50735 18.3776C3.43763 18.204 3.41801 18.0142 3.45074 17.83L4.45074 12.2L0.330739 8.20002C0.202197 8.07175 0.111011 7.91089 0.0669669 7.73471C0.0229231 7.55854 0.0276841 7.3737 0.0807392 7.20002C0.138699 7.0223 0.245315 6.86437 0.388489 6.74418C0.531663 6.62398 0.705662 6.54633 0.890739 6.52002L6.59074 5.69002L9.10074 0.560021C9.18262 0.39095 9.31048 0.248363 9.46965 0.148594C9.62882 0.0488258 9.81288 -0.00408936 10.0007 -0.00408936C10.1886 -0.00408936 10.3727 0.0488258 10.5318 0.148594C10.691 0.248363 10.8189 0.39095 10.9007 0.560021L13.4407 5.68002L19.1407 6.51002C19.3258 6.53633 19.4998 6.61398 19.643 6.73418C19.7862 6.85437 19.8928 7.0123 19.9507 7.19002C20.0038 7.3637 20.0086 7.54854 19.9645 7.72471C19.9205 7.90089 19.8293 8.06175 19.7007 8.19002L15.5807 12.19L16.5807 17.82C16.6164 18.0075 16.5977 18.2013 16.5269 18.3785C16.456 18.5557 16.3359 18.7089 16.1807 18.82C15.9997 18.9469 15.7816 19.0102 15.5607 19Z" fill="#637381"/>
</svg>
