<svg width="22" height="12" viewBox="0 0 22 12" fill="none" xmlns="http://www.w3.org/2000/svg">
<path d="M11.6491 3.99999C11.1666 2.62978 10.2033 1.48122 8.93793 0.76763C7.6726 0.0540408 6.19129 -0.176084 4.7691 0.119993C2.4791 0.579993 0.619101 2.40999 0.139101 4.69999C-0.054417 5.57709 -0.0487457 6.48643 0.155697 7.36105C0.36014 8.23567 0.758147 9.0533 1.32041 9.75373C1.88268 10.4542 2.59489 11.0196 3.4046 11.4083C4.21431 11.7971 5.10091 11.9993 5.9991 12C7.23904 12 8.44845 11.6153 9.46045 10.8988C10.4724 10.1824 11.2372 9.16951 11.6491 7.99999H15.9991V9.99999C15.9991 11.1 16.8991 12 17.9991 12C19.0991 12 19.9991 11.1 19.9991 9.99999V7.99999C21.0991 7.99999 21.9991 7.09999 21.9991 5.99999C21.9991 4.89999 21.0991 3.99999 19.9991 3.99999H11.6491ZM5.9991 7.99999C4.8991 7.99999 3.9991 7.09999 3.9991 5.99999C3.9991 4.89999 4.8991 3.99999 5.9991 3.99999C7.0991 3.99999 7.9991 4.89999 7.9991 5.99999C7.9991 7.09999 7.0991 7.99999 5.9991 7.99999Z" fill="#637381"/>
</svg>
