<svg width="20" height="16" viewBox="0 0 20 16" fill="none" xmlns="http://www.w3.org/2000/svg">
<path fill-rule="evenodd" clip-rule="evenodd" d="M8 0H12C15.771 0 17.657 -1.19209e-07 18.828 1.172C20 2.343 20 4.229 20 8C20 11.771 20 13.657 18.828 14.828C17.657 16 15.771 16 12 16H8C4.229 16 2.343 16 1.172 14.828C-1.19209e-07 13.657 0 11.771 0 8C0 4.229 -1.19209e-07 2.343 1.172 1.172C2.343 -1.19209e-07 4.229 0 8 0ZM11.25 5C11.25 4.80109 11.329 4.61032 11.4697 4.46967C11.6103 4.32902 11.8011 4.25 12 4.25H17C17.1989 4.25 17.3897 4.32902 17.5303 4.46967C17.671 4.61032 17.75 4.80109 17.75 5C17.75 5.19891 17.671 5.38968 17.5303 5.53033C17.3897 5.67098 17.1989 5.75 17 5.75H12C11.8011 5.75 11.6103 5.67098 11.4697 5.53033C11.329 5.38968 11.25 5.19891 11.25 5ZM12.25 8C12.25 7.80109 12.329 7.61032 12.4697 7.46967C12.6103 7.32902 12.8011 7.25 13 7.25H17C17.1989 7.25 17.3897 7.32902 17.5303 7.46967C17.671 7.61032 17.75 7.80109 17.75 8C17.75 8.19891 17.671 8.38968 17.5303 8.53033C17.3897 8.67098 17.1989 8.75 17 8.75H13C12.8011 8.75 12.6103 8.67098 12.4697 8.53033C12.329 8.38968 12.25 8.19891 12.25 8ZM13.25 11C13.25 10.8011 13.329 10.6103 13.4697 10.4697C13.6103 10.329 13.8011 10.25 14 10.25H17C17.1989 10.25 17.3897 10.329 17.5303 10.4697C17.671 10.6103 17.75 10.8011 17.75 11C17.75 11.1989 17.671 11.3897 17.5303 11.5303C17.3897 11.671 17.1989 11.75 17 11.75H14C13.8011 11.75 13.6103 11.671 13.4697 11.5303C13.329 11.3897 13.25 11.1989 13.25 11ZM9 5C9 5.53043 8.78929 6.03914 8.41421 6.41421C8.03914 6.78929 7.53043 7 7 7C6.46957 7 5.96086 6.78929 5.58579 6.41421C5.21071 6.03914 5 5.53043 5 5C5 4.46957 5.21071 3.96086 5.58579 3.58579C5.96086 3.21071 6.46957 3 7 3C7.53043 3 8.03914 3.21071 8.41421 3.58579C8.78929 3.96086 9 4.46957 9 5ZM7 13C11 13 11 12.105 11 11C11 9.895 9.21 9 7 9C4.79 9 3 9.895 3 11C3 12.105 3 13 7 13Z" fill="#637381"/>
</svg>
